# Blender v2.82 (sub 7) OBJ File: ''
# www.blender.org
mtllib LOD3.mtl
o astre1_Mesh.005
v 1.673684 0.459553 0.098672
v -0.387873 1.259094 -0.799034
v -0.486340 0.953419 0.239622
v -0.174734 -0.197964 -1.075720
v 0.142355 -0.518300 -0.390166
v 0.417151 1.681083 -0.374362
v 0.005312 1.465471 -0.091145
v 0.585196 1.532605 0.260529
v 1.062999 1.378761 -0.200487
v -0.211986 1.088923 -1.390499
v 0.358189 0.870215 0.490933
v 1.108958 1.141068 0.386546
v 1.696464 0.064437 -0.529815
v 0.198889 0.406743 -1.698869
v -0.415628 0.387336 -1.340119
v 0.877536 0.368026 0.558956
v 1.055797 -0.413749 -1.424683
v -0.235509 0.225610 0.421012
v 0.659256 -0.324586 0.260538
v 1.457426 -0.403837 -0.590372
v -0.428031 -0.459030 -0.343338
v 0.158187 -0.450415 0.391895
vt 0.798243 0.996905
vt 0.511853 0.806299
vt 0.747493 0.507399
vt 0.800000 0.676208
vt 0.900000 0.790550
vt 0.000000 1.000000
vt -0.085444 0.794717
vt 0.100000 0.823792
vt 0.098766 0.643942
vt 0.200000 1.000000
vt 0.300000 0.823792
vt 0.252383 0.661214
vt 0.400000 1.000000
vt 0.400000 0.676208
vt 0.452395 0.507070
vt 0.315995 0.303658
vt 0.500000 0.323792
vt 0.550000 0.500000
vt 0.669460 0.333108
vt 0.885633 0.327904
vt -0.050000 0.500000
vt -0.100000 0.323792
vt 0.000000 0.177943
vt 0.138568 0.459711
vt 0.317202 0.500000
vt 0.200000 0.181896
vt 0.852825 0.500000
vt 0.615494 0.079455
vt -0.145091 0.079455
vt 0.100000 0.000000
vt 0.300000 0.000000
vn 0.4579 0.6018 -0.6544
vn 0.4898 0.5866 -0.6450
vn -0.2879 0.8942 -0.3429
vn -0.7816 0.4980 -0.3757
vn -0.5193 0.7677 -0.3753
vn -0.4641 0.8858 -0.0005
vn -0.6614 0.7342 0.1534
vn -0.2809 0.9154 0.2884
vn -0.1606 0.6397 0.7516
vn -0.5036 0.4327 0.7478
vn 0.3975 0.9112 0.1079
vn 0.0146 0.3240 0.9459
vn 0.5299 0.7997 0.2823
vn 0.7931 0.5836 0.1742
vn 0.5553 -0.5993 0.5767
vn 0.8260 -0.4632 0.3211
vn 0.8368 -0.3756 -0.3984
vn -0.3148 -0.5799 -0.7514
vn -0.7448 -0.5041 -0.4373
vn -0.8898 -0.2050 0.4078
vn 0.3314 -0.4595 0.8240
vn 0.6259 0.4381 -0.6452
vn 0.5927 0.4526 -0.6662
vn 0.8406 0.4718 -0.2662
vn -0.4211 -0.5116 -0.7490
vn -0.9096 0.2396 -0.3394
vn -0.5043 0.0847 -0.8593
vn -0.9990 -0.0267 -0.0351
vn -0.9986 0.0156 -0.0496
vn -0.9986 0.0158 -0.0507
vn -0.9945 0.0763 -0.0718
vn -0.1089 -0.1060 0.9884
vn -0.1238 0.0064 0.9923
vn -0.2691 0.1446 0.9522
vn 0.4816 -0.4704 0.7395
vn 0.4961 0.0449 0.8671
vn 0.0642 0.1989 0.9779
vn -0.2494 -0.9165 -0.3129
vn -0.1261 -0.9198 -0.3715
vn -0.0958 -0.9915 0.0880
vn -0.7022 -0.4333 0.5650
vn 0.2620 -0.9619 0.0782
vn 0.0825 -0.9962 -0.0279
vn 0.1149 -0.9733 0.1985
usemtl None
s 1
f 6/1/1 9/2/1 14/3/1
f 6/1/2 14/3/2 10/4/2
f 6/1/3 10/4/4 2/5/5
f 6/6/6 2/7/6 7/8/6
f 7/8/7 2/7/7 3/9/7
f 6/10/8 7/8/8 8/11/8
f 7/8/9 3/9/9 11/12/9
f 7/8/10 11/12/10 8/11/10
f 6/13/11 8/11/11 9/2/11
f 8/11/12 11/12/12 12/14/12
f 8/11/13 12/14/13 9/2/13
f 9/2/14 12/14/14 1/15/14
f 1/15/15 19/16/15 20/17/15
f 1/15/16 20/17/16 13/18/16
f 13/18/17 20/17/17 17/19/17
f 14/3/18 17/19/18 4/20/18
f 15/21/19 4/22/19 21/23/19
f 3/9/20 21/23/20 18/24/20
f 16/25/21 22/26/21 19/16/21
f 17/19/22 14/3/22 9/2/22
f 17/19/23 9/2/23 13/18/23
f 13/18/24 9/2/24 1/15/24
f 4/20/25 15/27/25 14/3/25
f 15/27/26 2/5/5 10/4/4
f 15/27/27 10/4/27 14/3/27
f 21/23/28 3/9/29 15/21/30
f 3/9/29 2/7/31 15/21/30
f 22/26/32 16/25/32 18/24/32
f 16/25/33 11/12/33 18/24/33
f 18/24/34 11/12/34 3/9/34
f 19/16/35 1/15/35 16/25/35
f 1/15/36 12/14/36 16/25/36
f 16/25/37 12/14/37 11/12/37
f 5/28/38 4/20/38 17/19/38
f 21/23/39 4/22/39 5/29/39
f 5/30/40 22/26/40 21/23/40
f 22/26/41 18/24/41 21/23/41
f 5/31/42 19/16/42 22/26/42
f 5/28/43 17/19/43 20/17/43
f 5/28/44 20/17/44 19/16/44
