# Blender v2.82 (sub 7) OBJ File: ''
# www.blender.org
mtllib LOD1.mtl
o astre1_Mesh
v 0.133932 1.701364 -0.133932
v 1.495095 0.889663 -0.269837
v 0.706352 0.654917 -1.257787
v -1.448746 0.730036 -0.811760
v -1.378944 0.512370 1.084447
v 0.300074 0.917243 1.810341
v 1.473412 -0.701140 -1.008143
v -0.603776 -0.706616 -1.272788
v -1.751209 -1.201579 0.369639
v -0.871293 -0.721637 1.795339
v 1.115645 -0.733247 0.888064
v 0.157691 -1.905436 -0.157691
v 0.978038 1.432991 0.150447
v 0.139393 1.354494 -0.822453
v -0.930858 1.403333 -0.700417
v -0.647901 1.319970 0.414146
v 0.417272 1.459453 0.980947
v 1.037481 1.024240 -0.977769
v -0.289528 1.047937 -1.569471
v -1.598429 0.558276 0.157726
v -0.603868 0.982806 1.348491
v 1.298092 1.045319 0.825630
v 1.514190 0.279171 -0.678416
v 0.157935 0.133932 -1.701363
v -1.916081 -0.264311 -0.183330
v -1.426735 0.174097 1.601505
v 0.693289 -0.001227 1.529662
v 1.512560 -0.103365 0.436146
v 1.097796 -0.156593 -1.388301
v -1.022228 0.072169 -1.316458
v -1.917710 -0.389362 0.931233
v -0.340743 0.157691 1.905436
v 0.439369 -1.126053 -1.474116
v -1.065362 -1.033971 -0.624145
v -1.381810 -1.243133 1.179255
v 0.172864 -0.809605 1.443846
v 1.411730 -0.889841 0.088309
v 0.853938 -1.692423 -0.605358
v -0.270634 -1.530310 -1.017892
v -0.699890 -1.638786 -0.219990
v -0.080935 -1.747810 0.785507
v 0.862991 -1.548046 0.509205
vt 0.600000 1.000000
vt 0.500000 0.823792
vt 0.700000 0.823792
vt 0.500000 0.647584
vt 0.600000 0.676208
vt 0.700000 0.647584
vt 0.800000 1.000000
vt 0.900000 0.823792
vt 0.800000 0.676208
vt 0.900000 0.647584
vt 0.000000 1.000000
vt -0.100000 0.823792
vt 0.100000 0.823792
vt -0.100000 0.647584
vt 0.000000 0.676208
vt 0.100000 0.647584
vt 0.200000 1.000000
vt 0.300000 0.823792
vt 0.200000 0.676208
vt 0.300000 0.647584
vt 0.400000 1.000000
vt 0.400000 0.676208
vt 0.450000 0.500000
vt 0.550000 0.500000
vt 0.400000 0.352416
vt 0.500000 0.323792
vt 0.600000 0.352416
vt 0.650000 0.500000
vt 0.750000 0.500000
vt 0.700000 0.323792
vt 0.800000 0.352416
vt 0.850000 0.500000
vt 0.950000 0.500000
vt 0.900000 0.323792
vt -0.050000 0.500000
vt -0.100000 0.323792
vt 0.000000 0.352416
vt 0.050000 0.500000
vt 0.150000 0.500000
vt 0.100000 0.323792
vt 0.200000 0.352416
vt 0.250000 0.500000
vt 0.350000 0.500000
vt 0.300000 0.323792
vt 0.700000 0.000000
vt 0.800000 0.176208
vt 0.600000 0.176208
vt -0.100000 0.000000
vt 0.000000 0.176208
vt -0.200000 0.176208
vt 0.100000 0.000000
vt 0.200000 0.176208
vt 0.300000 0.000000
vt 0.400000 0.176208
vt 0.500000 0.000000
vn 0.3989 0.8202 -0.4100
vn 0.6012 0.7609 -0.2440
vn 0.2794 0.9074 -0.3140
vn 0.0655 0.5649 -0.8225
vn -0.0106 0.8930 -0.4500
vn 0.4498 0.7054 -0.5478
vn -0.0010 0.9253 -0.3792
vn -0.5601 0.5353 -0.6322
vn -0.3424 0.9265 0.1562
vn -0.7915 0.6111 -0.0139
vn -0.6454 0.7319 0.2186
vn -0.6446 0.7407 0.1894
vn -0.2640 0.9265 0.2681
vn -0.5678 0.7654 0.3030
vn -0.2961 0.8939 0.3365
vn -0.2030 0.8325 0.5155
vn 0.2560 0.9561 0.1424
vn 0.4349 0.7243 0.5350
vn 0.4484 0.8503 0.2757
vn 0.7380 0.6737 0.0370
vn 0.9996 0.0246 0.0099
vn 0.8806 -0.2815 0.3811
vn 0.9931 -0.1111 -0.0367
vn 0.9973 -0.0571 0.0463
vn 0.3949 0.3181 -0.8619
vn 0.3879 0.3258 -0.8622
vn 0.3883 0.3253 -0.8622
vn 0.4820 -0.2531 -0.8388
vn 0.2838 -0.1084 -0.9527
vn -0.2726 -0.2294 -0.9344
vn -0.7809 -0.0274 -0.6241
vn -0.6488 -0.3854 -0.6562
vn -0.6706 -0.3746 -0.6403
vn -0.6970 -0.4513 -0.5572
vn -0.8523 0.4704 0.2287
vn -0.8523 0.4704 0.2286
vn -0.8523 0.4703 0.2289
vn -0.8339 -0.4192 0.3590
vn -0.6841 -0.2281 0.6928
vn -0.6392 -0.2381 0.7312
vn 0.3172 -0.1504 0.9364
vn 0.2886 -0.2832 0.9146
vn 0.2840 -0.2859 0.9152
vn 0.2842 -0.2858 0.9152
vn 0.2889 -0.2831 0.9146
vn 0.4897 -0.3976 0.7760
vn 0.8063 0.1582 -0.5700
vn 0.3764 0.3213 -0.8689
vn 0.7620 0.2470 -0.5986
vn 0.8186 0.3369 -0.4651
vn -0.2932 -0.2099 -0.9327
vn -0.5758 0.2288 -0.7849
vn -0.3094 -0.0142 -0.9508
vn 0.3952 0.3178 -0.8619
vn -0.9823 -0.1860 -0.0223
vn -0.8528 0.4712 0.2253
vn -0.9373 0.3464 0.0375
vn -0.9197 0.3857 -0.0737
vn -0.2687 0.0416 0.9623
vn -0.3863 0.4282 0.8169
vn -0.2274 0.4940 0.8392
vn -0.5712 0.7100 0.4117
vn 0.7953 -0.0690 0.6023
vn 0.7954 -0.0683 0.6023
vn 0.7954 -0.0681 0.6023
vn 0.9790 0.1293 0.1577
vn 0.7966 -0.0554 0.6020
vn 0.6950 0.0791 0.7147
vn 0.0177 -0.9132 -0.4071
vn -0.3253 -0.3971 -0.8582
vn 0.0936 -0.8130 -0.5747
vn 0.5207 -0.5800 -0.6265
vn -0.2680 -0.9249 -0.2699
vn -0.5557 -0.6672 -0.4960
vn -0.6215 -0.6588 -0.4239
vn -0.6057 -0.4484 -0.6573
vn -0.3014 -0.9499 0.0825
vn -0.0768 -0.7287 0.6805
vn -0.3325 -0.9375 0.1030
vn -0.3322 -0.9375 0.1032
vn -0.3323 -0.9375 0.1031
vn -0.3320 -0.9376 0.1033
vn 0.2640 -0.9382 0.2236
vn 0.4723 -0.4878 0.7341
vn 0.3391 -0.6001 0.7245
vn 0.2097 -0.5990 0.7728
vn 0.3586 -0.9261 0.1171
vn 0.8386 -0.5428 -0.0462
vn 0.7884 -0.6108 0.0727
vn 0.8148 -0.4323 0.3863
usemtl None
s 1
f 1/1/1 13/2/1 14/3/1
f 13/2/2 2/4/2 18/5/2
f 13/2/3 18/5/3 14/3/3
f 14/3/4 18/5/4 3/6/4
f 1/7/5 14/3/5 15/8/5
f 14/3/6 3/6/6 19/9/6
f 14/3/7 19/9/7 15/8/7
f 15/8/8 19/9/8 4/10/8
f 1/11/9 15/12/9 16/13/9
f 15/12/10 4/14/10 20/15/10
f 15/12/11 20/15/11 16/13/11
f 16/13/12 20/15/12 5/16/12
f 1/17/13 16/13/13 17/18/13
f 16/13/14 5/16/14 21/19/14
f 16/13/15 21/19/15 17/18/15
f 17/18/16 21/19/16 6/20/16
f 1/21/17 17/18/17 13/2/17
f 17/18/18 6/20/18 22/22/18
f 17/18/19 22/22/19 13/2/19
f 13/2/20 22/22/20 2/4/20
f 2/4/21 28/23/21 23/24/21
f 28/23/22 11/25/22 37/26/22
f 28/23/23 37/26/23 23/24/23
f 23/24/24 37/26/24 7/27/24
f 3/6/25 29/28/26 24/29/27
f 29/28/28 7/27/28 33/30/28
f 29/28/29 33/30/29 24/29/29
f 24/29/30 33/30/30 8/31/30
f 4/10/31 30/32/31 25/33/31
f 30/32/32 8/31/32 34/34/32
f 30/32/33 34/34/33 25/33/33
f 25/35/34 34/36/34 9/37/34
f 5/16/35 31/38/36 26/39/37
f 31/38/38 9/37/38 35/40/38
f 31/38/39 35/40/39 26/39/39
f 26/39/40 35/40/40 10/41/40
f 6/20/41 32/42/41 27/43/41
f 32/42/42 10/41/43 36/44/44
f 32/42/42 36/44/44 27/43/45
f 27/43/46 36/44/46 11/25/46
f 7/27/47 29/28/47 23/24/47
f 29/28/48 3/6/48 18/5/48
f 29/28/49 18/5/49 23/24/49
f 23/24/50 18/5/50 2/4/50
f 8/31/51 30/32/51 24/29/51
f 30/32/52 4/10/52 19/9/52
f 30/32/53 19/9/53 24/29/53
f 24/29/27 19/9/54 3/6/25
f 9/37/55 31/38/55 25/35/55
f 31/38/36 5/16/35 20/15/56
f 31/38/57 20/15/57 25/35/57
f 25/35/58 20/15/58 4/14/58
f 10/41/59 32/42/59 26/39/59
f 32/42/60 6/20/60 21/19/60
f 32/42/61 21/19/61 26/39/61
f 26/39/62 21/19/62 5/16/62
f 11/25/63 28/23/64 27/43/65
f 28/23/66 2/4/66 22/22/66
f 28/23/64 22/22/67 27/43/65
f 27/43/68 22/22/68 6/20/68
f 12/45/69 39/46/69 38/47/69
f 39/46/70 8/31/70 33/30/70
f 39/46/71 33/30/71 38/47/71
f 38/47/72 33/30/72 7/27/72
f 12/48/73 40/49/73 39/50/73
f 40/49/74 9/37/74 34/36/74
f 40/49/75 34/36/75 39/50/75
f 39/46/76 34/34/76 8/31/76
f 12/51/77 41/52/77 40/49/77
f 41/52/78 10/41/78 35/40/78
f 41/52/79 35/40/80 40/49/81
f 40/49/81 35/40/80 9/37/82
f 12/53/83 42/54/83 41/52/83
f 42/54/84 11/25/84 36/44/84
f 42/54/85 36/44/85 41/52/85
f 41/52/86 36/44/86 10/41/86
f 12/55/87 38/47/87 42/54/87
f 38/47/88 7/27/88 37/26/88
f 38/47/89 37/26/89 42/54/89
f 42/54/90 37/26/90 11/25/90
