# Blender v2.82 (sub 7) OBJ File: ''
# www.blender.org
mtllib LOD2.mtl
o astre1_Mesh.003
v -0.217310 1.026233 0.217310
v 0.123422 0.798893 -0.825927
v -1.520351 0.727297 1.133773
v 0.024772 0.940827 1.378497
v 1.254647 -0.806185 -0.947109
v -0.536012 -1.123756 -0.754111
v -1.285230 -0.784694 0.074620
v 0.154305 -1.666167 -0.154305
v 0.533487 1.053921 0.014108
v -0.535337 0.525028 -0.071889
v -0.902717 0.829834 0.760108
v -0.143402 1.406982 0.678708
v 0.745941 0.502276 -0.480029
v -1.076265 0.221802 -0.357195
v -1.398840 0.277418 0.309577
v -0.685936 0.697619 1.544414
v 0.431895 1.015098 0.866171
v 1.166954 -0.148243 -0.041150
v -0.292354 -0.217310 -1.026233
v -1.253915 -0.016017 1.671574
v 0.333033 0.409940 1.161751
v 0.648174 -0.023078 -0.996567
v -1.153052 -0.229995 -0.328895
v -1.890656 -0.174914 0.766841
v -0.318951 0.154305 1.666166
v 0.641879 -0.682127 -1.449565
v 0.820367 -0.215545 0.527067
v 1.268866 -0.875866 -0.267149
v 0.927922 -1.375009 -0.709730
v 0.158598 -1.540163 -0.728467
v -0.534812 -1.743019 0.005306
v -0.257292 -0.708189 1.195842
vt 0.600000 1.000000
vt 0.500000 0.823792
vt 0.700000 0.730925
vt 0.536801 0.538958
vt 0.600000 0.676208
vt 0.800000 1.000000
vt 0.900000 0.823792
vt 0.884086 0.652139
vt 0.000000 1.000000
vt -0.100000 0.823792
vt 0.100000 0.823792
vt -0.100000 0.647584
vt 0.000000 0.676208
vt 0.100000 0.647584
vt 0.200000 1.000000
vt 0.300000 0.823792
vt 0.200000 0.676208
vt 0.300000 0.647584
vt 0.400000 1.000000
vt 0.400000 0.676208
vt 0.352173 0.500000
vt 0.381734 0.347188
vt 0.500000 0.323792
vt 0.600000 0.352416
vt 0.650000 0.500000
vt 0.750000 0.500000
vt 0.700000 0.323792
vt 0.900978 0.323512
vt -0.050000 0.500000
vt -0.100000 0.323792
vt 0.023015 0.345828
vt 0.050000 0.500000
vt 0.150000 0.500000
vt 0.200000 0.318104
vt 0.250000 0.500000
vt 0.897539 0.500000
vt 0.700000 0.000000
vt 0.800000 0.176208
vt 0.588567 0.176208
vt -0.100000 0.000000
vt 0.000000 0.176208
vt -0.200000 0.176208
vt 0.100000 0.000000
vt 0.300000 0.000000
vn -0.1014 0.9646 -0.2433
vn 0.8725 0.4664 -0.1456
vn 0.8785 0.3574 -0.3169
vn 0.8811 0.3854 -0.2740
vn 0.5806 0.6558 -0.4825
vn -0.6790 0.6392 -0.3611
vn -0.4564 0.8864 -0.0768
vn -0.5771 0.6508 -0.4933
vn -0.3682 0.8947 -0.2528
vn -0.4292 0.7702 -0.4717
vn -0.4192 0.7695 -0.4818
vn -0.5658 0.6782 -0.4690
vn -0.0539 0.9821 0.1804
vn -0.5603 0.7774 0.2859
vn -0.1428 0.8076 0.5723
vn -0.1925 0.7718 -0.6060
vn 0.4044 0.8030 0.4377
vn 0.5371 0.8373 0.1022
vn 0.8800 0.4579 0.1258
vn 0.5754 0.7586 -0.3057
vn 0.8041 -0.0707 0.5903
vn 0.9900 0.1406 -0.0063
vn -0.0098 0.1972 -0.9803
vn 0.6210 0.4400 -0.6487
vn -0.0907 0.5647 -0.8203
vn -0.4648 -0.1376 -0.8746
vn -0.7669 -0.2479 -0.5919
vn -0.8218 0.1099 0.5591
vn -0.3724 -0.8334 0.4084
vn -0.3821 -0.8297 0.4069
vn 0.6052 0.0265 0.7957
vn 0.6238 -0.3018 0.7209
vn 0.6040 -0.3478 0.7171
vn 0.6244 -0.2989 0.7216
vn 0.6502 -0.2286 0.7246
vn 0.7548 0.5633 -0.3361
vn 0.5905 0.5073 -0.6277
vn 0.8614 0.2654 -0.4330
vn -0.6276 -0.0642 -0.7758
vn -0.6290 0.0583 -0.7752
vn -0.4835 0.3555 -0.7999
vn -0.8177 -0.1983 -0.5405
vn -0.7922 0.4790 -0.3782
vn -0.7834 0.3033 -0.5426
vn -0.8892 0.1235 -0.4405
vn 0.0910 -0.4717 0.8770
vn 0.1207 0.2940 0.9481
vn -0.0306 0.1989 0.9795
vn -0.3819 0.4480 0.8084
vn 0.8411 0.1202 0.5273
vn 0.7566 0.1830 0.6278
vn 0.2101 -0.9553 -0.2081
vn -0.2816 -0.5194 -0.8068
vn 0.1648 -0.6873 -0.7074
vn 0.4582 -0.5534 -0.6955
vn 0.0593 -0.9751 -0.2136
vn -0.7238 -0.5353 -0.4354
vn -0.4039 -0.7093 -0.5777
vn 0.2258 -0.7607 0.6086
vn -0.6109 -0.5215 0.5957
vn 0.6150 -0.5424 0.5723
vn 0.6121 -0.5446 0.5733
vn 0.6096 -0.5494 0.5714
vn 0.6070 -0.5527 0.5710
vn 0.8519 -0.5189 -0.0710
vn 0.1584 -0.7134 0.6826
usemtl None
s 1
f 1/1/1 9/2/1 2/3/1
f 9/2/2 18/4/3 13/5/4
f 9/2/5 13/5/5 2/3/5
f 1/6/6 2/3/6 10/7/6
f 2/3/7 14/8/7 10/7/7
f 1/9/8 10/10/8 11/11/8
f 10/10/9 14/12/9 15/13/9
f 10/10/10 15/13/10 11/11/10
f 11/11/11 15/13/11 3/14/11
f 1/15/12 11/11/12 12/16/12
f 11/11/13 3/14/13 16/17/13
f 11/11/14 16/17/14 12/16/14
f 12/16/15 16/17/15 4/18/15
f 1/19/16 12/16/16 9/2/16
f 12/16/17 4/18/17 17/20/17
f 12/16/18 17/20/18 9/2/18
f 9/2/19 17/20/19 18/4/19
f 21/21/20 27/22/20 28/23/20
f 21/21/21 28/23/21 18/4/21
f 18/4/22 28/23/22 5/24/22
f 2/3/23 22/25/23 19/26/23
f 22/25/24 5/24/24 26/27/24
f 22/25/25 26/27/25 19/26/25
f 19/26/26 26/27/26 6/28/26
f 23/29/27 6/30/27 7/31/27
f 3/14/28 24/32/28 20/33/28
f 24/32/29 7/31/29 20/33/29
f 20/33/30 7/31/30 32/34/30
f 4/18/31 25/35/31 21/21/31
f 25/35/32 32/34/33 27/22/34
f 25/35/32 27/22/34 21/21/35
f 5/24/36 22/25/36 18/4/36
f 22/25/37 2/3/37 13/5/37
f 22/25/38 13/5/4 18/4/3
f 6/28/39 23/36/39 19/26/39
f 23/36/40 14/8/40 19/26/40
f 19/26/41 14/8/41 2/3/41
f 7/31/42 24/32/42 23/29/42
f 24/32/43 3/14/43 15/13/43
f 24/32/44 15/13/44 23/29/44
f 23/29/45 15/13/45 14/12/45
f 32/34/46 25/35/46 20/33/46
f 25/35/47 4/18/47 16/17/47
f 25/35/48 16/17/48 20/33/48
f 20/33/49 16/17/49 3/14/49
f 21/21/50 18/4/50 17/20/50
f 21/21/51 17/20/51 4/18/51
f 8/37/52 30/38/52 29/39/52
f 30/38/53 6/28/53 26/27/53
f 30/38/54 26/27/54 29/39/54
f 29/39/55 26/27/55 5/24/55
f 8/40/56 31/41/56 30/42/56
f 31/41/57 7/31/57 6/30/57
f 31/41/58 6/30/58 30/42/58
f 8/43/59 32/34/59 31/41/59
f 32/34/60 7/31/60 31/41/60
f 8/44/61 29/39/62 32/34/63
f 29/39/62 27/22/64 32/34/63
f 29/39/65 5/24/65 28/23/65
f 29/39/66 28/23/66 27/22/66
