# Blender v2.82 (sub 7) OBJ File: ''
# www.blender.org
mtllib LOD4.mtl
o astre1_Mesh.003
v -1.445733 0.682888 1.100541
v 0.113001 1.324279 1.012610
v -0.379179 -0.741169 -1.012790
v -0.371089 -1.805805 0.056782
v 0.389231 0.939432 -0.584875
v -1.172767 0.132603 -0.301144
v -1.719667 -0.312572 0.428532
v 0.734009 -0.659693 -1.387660
v 0.033549 0.692101 1.623526
v 1.406404 -0.836215 -0.455832
v 0.700809 -1.546554 -0.742836
v -0.582499 -0.152389 1.812730
vt -0.047684 0.915976
vt -0.084572 0.630957
vt 0.100000 0.665466
vt 0.200000 1.000000
vt 0.321583 0.731418
vt 0.246500 0.569150
vt 0.457873 0.901950
vt 0.536961 0.363156
vt 0.623275 0.757416
vt 0.696607 0.335751
vt 0.828988 0.407666
vt -0.100000 0.323792
vt 0.040655 0.446609
vt 0.170498 0.425430
vt 0.885835 0.632364
vt 0.658082 0.176208
vt 0.019710 0.141478
vt -0.200000 0.176208
vt 0.300000 0.000000
vn -0.4769 0.7826 -0.4001
vn -0.3789 0.8827 -0.2782
vn -0.2452 0.6895 0.6816
vn 0.8664 0.4890 -0.1009
vn 0.8664 0.4985 0.0297
vn 0.8342 0.4553 -0.3112
vn -0.3208 0.3688 -0.8724
vn -0.7458 -0.1484 -0.6495
vn -0.7401 -0.2243 0.6340
vn 0.7750 0.4090 -0.4818
vn -0.3511 0.3786 -0.8564
vn -0.8232 0.4554 -0.3391
vn -0.3056 0.4149 0.8570
vn 0.8827 0.2644 0.3884
vn -0.2252 -0.5674 -0.7920
vn 0.6837 -0.4457 -0.5778
vn -0.7008 -0.5083 -0.5006
vn -0.3333 -0.6695 -0.6639
vn -0.5581 -0.6366 0.5322
vn 0.5787 -0.5578 0.5949
vn 0.6226 -0.5098 0.5937
vn 0.6905 -0.4302 0.5815
vn 0.7169 -0.3942 0.5750
vn 0.3509 -0.6289 0.6939
usemtl None
s 1
f 5/1/1 6/2/1 1/3/1
f 5/4/2 1/3/2 2/5/2
f 1/3/3 9/6/3 2/5/3
f 5/7/4 2/5/5 10/8/6
f 5/9/7 8/10/7 3/11/7
f 6/2/8 3/12/8 7/13/8
f 1/3/9 7/13/9 12/14/9
f 8/10/10 5/7/4 10/8/6
f 3/11/11 6/15/11 5/9/11
f 7/13/12 1/3/12 6/2/12
f 12/14/13 9/6/13 1/3/13
f 9/6/14 10/8/14 2/5/14
f 11/16/15 3/11/15 8/10/15
f 11/16/16 8/10/16 10/8/16
f 4/17/17 7/13/17 3/12/17
f 4/17/18 3/12/18 11/18/18
f 12/14/19 7/13/19 4/17/19
f 4/19/20 11/16/21 12/14/22
f 11/16/21 9/6/23 12/14/22
f 11/16/24 10/8/24 9/6/24
